# AST/ASF file generated using VICON BodyLanguage
# -----------------------------------------------
:version 1.10
:name VICON
:units
  mass 1.0
  length 0.45
  angle deg
:documentation
   .ast/.asf automatically generated from VICON data using
   VICON BodyBuilder and BodyLanguage model FoxedUp or BRILLIANT.MOD
:root
   order TX TY TZ RX RY RZ
   axis XYZ
   position 0 0 0  
   orientation 0 0 0 
:bonedata
  begin
     id 1 
     name lhipjoint
     direction 0.722297 -0.617336 0.311742 
     length 2.6635 
     axis 0 0 0  XYZ
  end
  begin
     id 2 
     name lfemur
     direction 0.34202 -0.939693 0  
     length 7.39349  
     axis 0 0 20  XYZ
    dof rx ry rz
    limits (-160.0 20.0)
           (-70.0 70.0)
           (-60.0 70.0)
  end
  begin
     id 3 
     name ltibia
     direction 0.34202 -0.939693 0   
     length 7.36294   
     axis 0 0 20   XYZ
    dof rx
    limits (-10.0 170.0)
  end
  begin
     id 4 
     name lfoot
     direction 0.104879 -0.288152 0.951824   
     length 2.16981   
     axis -90 7.62852e-016 20   XYZ
    dof rx rz
    limits (-45.0 90.0)
           (-70.0 20.0)
  end
  begin
     id 5 
     name ltoes
     direction 1.53586e-011 -4.21895e-011 1   
     length 1.08218   
     axis -90 7.62852e-016 20   XYZ
    dof rx
    limits (-90.0 20.0)
  end
  begin
     id 6 
     name rhipjoint
     direction -0.75102 -0.589393 0.297631   
     length 2.78977  
     axis 0 0 0  XYZ 
  end
  begin
     id 7 
     name rfemur
     direction -0.34202 -0.939693 0   
     length 7.46076   
     axis 0 0 -20   XYZ
    dof rx ry rz
    limits (-160.0 20.0)
           (-70.0 70.0)
           (-70.0 60.0)
  end
  begin
     id 8 
     name rtibia
     direction -0.34202 -0.939693 0   
     length 7.31726   
     axis 0 0 -20   XYZ
    dof rx
    limits (-10.0 170.0)
 end
 begin
     id 9 
     name rfoot
     direction -0.107991 -0.296704 0.948844   
     length 2.09388  
     axis -90 -7.62852e-016 -20   XYZ
    dof rx rz
    limits (-45.0 90.0)
           (-20.0 70.0)
  end
  begin
     id 10 
     name rtoes
     direction -1.53559e-011 -4.21911e-011 1   
     length 1.04433   
     axis -90 -7.62852e-016 -20   XYZ
    dof rx
    limits (-90.0 20.0)
  end
  begin
     id 11 
     name lowerback
     direction 0.0165164 0.98272 0.184358   
     length 1.71896   
     axis 0 0 0   XYZ
    dof rx ry rz
    limits (-20.0 45.0)
           (-30.0 30.0)
           (-30.0 30.0)
  end
  begin
     id 12 
     name upperback
     direction -0.00887249 0.992297 0.123566   
     length 1.71504   
     axis 0 0 0   XYZ
    dof rx ry rz
    limits (-20.0 45.0)
           (-30.0 30.0)
           (-30.0 30.0)
  end
  begin
     id 13 
     name thorax
     direction -0.0157026 0.998908 0.0440032   
     length 1.77022   
     axis 0 0 0   XYZ
    dof rx ry rz
    limits (-20.0 45.0)
           (-30.0 30.0)
           (-30.0 30.0)
  end
  begin
     id 14 
     name lowerneck
     direction -0.0238856 0.998137 0.0561411   
     length 1.89341   
     axis 0 0 0   XYZ
    dof rx ry rz
    limits (-20.0 45.0)
           (-30.0 30.0)
           (-30.0 30.0)
  end
  begin
     id 15 
     name upperneck
     direction 0.0276574 0.952253 -0.304056   
     length 1.86999   
     axis 0 0 0   XYZ
    dof rx ry rz
    limits (-20.0 45.0)
           (-30.0 30.0)
           (-30.0 30.0)
  end
  begin
     id 16
     name head
     direction 0.00800083 0.994258 -0.106712  
     length 1.91492  
     axis 0 0 0   XYZ
    dof rx ry rz
    limits (-20.0 45.0)
           (-30.0 30.0)
           (-30.0 30.0)
  end
  begin
     id 17 
     name lclavicle
     direction 0.97203 0.225407 0.06595  
     length 3.34889  
     axis 0 0 0   XYZ
    dof ry rz
    limits (-20.0 10.0)
           (0.0 20.0)
  end
  begin
     id 18 
     name lhumerus
     direction 1 -4.48973e-011 2.20267e-027   
     length 4.85645   
     axis 180 -30 -90   XYZ
    dof rx ry rz
    limits (-60.0 90.0)
           (-90.0 90.0)
           (-90.0 90.0)
  end
  begin
     id 19
     name lradius
     direction 1 -4.4897e-011 4.60472e-027   
     length 2.79874   
     axis 180 -30 -90   XYZ
    dof rx
    limits (-10.0 170.0)
  end
  begin
     id 20
     name lwrist
     direction 1 -4.48952e-011 1.14928e-026   
     length 1.39937   
     axis -6.29373e-015 90 90   XYZ
    dof ry
    limits (-180.0 0.0)
 end
  begin
     id 21 
     name lhand
     direction 1 -4.48967e-011 2.29886e-026   
     length 0.573398   
     axis -1.46689e-014 90 90   XYZ
    dof rx rz
    limits (-90.0 90.0)
           (-45.0 45.0)
  end
  begin
     id 22 
     name lfingers
     direction 1 -4.48955e-011 4.59726e-026   
     length 0.462289   
     axis -2.93383e-014 90 90   XYZ
    dof rx
    limits (0.0 90.0)
  end
  begin
     id 23
     name lthumb
     direction 0.707107 -6.34866e-011 0.707107   
     length 0.663757   
     axis -90 45 5.69224e-014   XYZ
    dof rx rz
    limits (-45.0 45.0)
           (-45.0 45.0)
  end
  begin
     id 24 
     name rclavicle
     direction -0.981571 0.157346 0.108443   
     length 3.35257  
     axis 0 0 0   XYZ 
    dof ry rz
    limits (-10.0 20.0)
           (-20.0 0.0)
  end
  begin
     id 25 
     name rhumerus
     direction -1 -4.48967e-011 8.58308e-029  
     length 4.67018   
     axis 180 30 90   XYZ
    dof rx ry rz
    limits (-90.0 60.0)
           (-90.0 90.0)
           (-90.0 90.0)
  end
  begin
     id 26 
     name rradius
     direction -1 -4.48958e-011 4.52548e-027   
     length 2.65534   
     axis 180 30 90   XYZ
    dof rx
    limits (-10.0 170.0)
  end
  begin
     id 27 
     name rwrist
     direction -1 -4.48977e-011 1.14952e-026   
     length 1.32767   
     axis -6.29373e-015 -90 -90   XYZ
    dof ry
    limits (-180.0 0.0)
  end
  begin
     id 28
     name rhand
     direction -1 -4.48924e-011 2.29804e-026   
     length 0.594069   
     axis -1.46689e-014 -90 -90   XYZ
    dof rx rz
    limits (-90.0 90.0)
           (-45.0 45.0)
  end
  begin
     id 29
     name rfingers
     direction -1 -4.48998e-011 4.59888e-026   
     length 0.478954   
     axis -2.93383e-014 -90 -90   XYZ
    dof rx
    limits (0.0 90.0)
  end
  begin
     id 30
     name rthumb
     direction -0.707107 -6.34933e-011 0.707107   
     length 0.687685   
     axis -90 -45 -5.69224e-014   XYZ
    dof rx rz
    limits (-45.0 45.0)
           (-45.0 45.0)
  end
:hierarchy
  begin
    root lhipjoint rhipjoint lowerback
    lhipjoint lfemur
    lfemur ltibia
    ltibia lfoot
    lfoot ltoes
    rhipjoint rfemur
    rfemur rtibia
    rtibia rfoot
    rfoot rtoes
    lowerback upperback
    upperback thorax
    thorax lowerneck lclavicle rclavicle
    lowerneck upperneck
    upperneck head
    lclavicle lhumerus
    lhumerus lradius
    lradius lwrist
    lwrist lhand lthumb
    lhand lfingers
    rclavicle rhumerus
    rhumerus rradius
    rradius rwrist
    rwrist rhand rthumb
    rhand rfingers
  end

#!OML:ASF E:\pregnant2\Project 1\Capture day 1\Session 1\pregnant2.ASF
:FULLY-SPECIFIED
:DEGREES
320
root 7.81536 10.2464 15.52 9.85397 1.364 3.01613
lowerback 7.8307 -1.02611 -1.0261
upperback -10.7542 -1.80629 -1.62718
thorax -16.504 -0.855455 -0.872284
lowerneck -14.3882 -1.87685 -2.35584
upperneck 38.685 -2.06175 -0.253264
head 16.2787 -1.27042 -0.0631467
rclavicle -9.44227e-015 1.64991e-014
rhumerus -32.825 64.917 -72.0981
rradius 90.9009
rwrist 14.4669
rhand -2.36798 -10.825
rfingers 7.12502
rthumb 23.3204 -39.4325
lclavicle -9.44227e-015 1.64991e-014
lhumerus -32.198 -64.3886 68.592
lradius 92.8331
lwrist -4.21817
lhand 2.2432 26.1459
lfingers 7.12502
lthumb 27.7372 54.1199
rfemur -101.506 -10.386 20.4937
rtibia 86.1067
rfoot 1.36305 -8.32524
rtoes 6.25364
lfemur -94.685 -0.338995 -17.8794
ltibia 68.2298
lfoot 11.7637 -4.44611
ltoes -16.7529
321
root 7.82479 10.2308 15.5312 10.189 0.89008 2.93678
lowerback 7.23168 -0.852009 -0.833089
upperback -10.7369 -1.52957 -1.67665
thorax -16.0901 -0.756415 -1.10242
lowerneck -14.4124 -1.81549 -2.2601
upperneck 38.7615 -1.95374 -0.356601
head 16.3201 -1.22527 -0.107077
rclavicle -1.19271e-014 2.38542e-014
rhumerus -33.9059 64.4283 -72.1235
rradius 91.7365
rwrist 14.7304
rhand -2.26216 -10.9859
rfingers 7.12502
rthumb 23.4219 -39.5805
lclavicle -1.19271e-014 2.38542e-014
lhumerus -33.2246 -63.768 68.5298
lradius 93.5522
lwrist -4.38674
lhand 2.34891 26.3432
lfingers 7.12502
lthumb 27.8382 54.3008
rfemur -102.16 -9.98396 20.9213
rtibia 86.7957
rfoot 0.844571 -8.41678
rtoes 6.27472
lfemur -95.2597 0.0794616 -17.8385
ltibia 68.659
lfoot 11.198 -4.33852
ltoes -16.3746
322
root 7.83249 10.2179 15.5416 10.4883 0.461436 2.87493
lowerback 6.70369 -0.690937 -0.672719
upperback -10.708 -1.27982 -1.7278
thorax -15.7082 -0.663805 -1.30482
lowerneck -14.4346 -1.75749 -2.16962
upperneck 38.8259 -1.85081 -0.455593
head 16.3553 -1.1824 -0.149011
rclavicle 6.08778e-015 9.93923e-015
rhumerus -34.9941 63.9306 -72.1704
rradius 92.5354
rwrist 14.9826
rhand -2.14674 -11.123
rfingers 7.12502
rthumb 23.5326 -39.7034
lclavicle 6.08778e-015 9.93923e-015
lhumerus -34.2187 -63.1459 68.4551
lradius 94.2357
lwrist -4.51062
lhand 2.46233 26.5473
lfingers 7.12502
lthumb 27.9467 54.4873
rfemur -102.74 -9.61302 21.3033
rtibia 87.4859
rfoot 0.366262 -8.50962
rtoes 6.3162
lfemur -95.774 0.457722 -17.8281
ltibia 69.0647
lfoot 10.6204 -4.24078
ltoes -15.9499
323
root 7.8371 10.2099 15.5491 10.7145 0.154234 2.85258
lowerback 6.35738 -0.570173 -0.569507
upperback -10.6701 -1.09861 -1.7788
thorax -15.4344 -0.594905 -1.45677
lowerneck -14.4493 -1.7026 -2.08487
upperneck 38.882 -1.75143 -0.553275
head 16.3848 -1.1417 -0.189888
rclavicle 6.95746e-015 4.57205e-015
rhumerus -36.1132 63.4446 -72.2611
rradius 93.3031
rwrist 15.1866
rhand -2.08144 -11.2934
rfingers 7.12502
rthumb 23.5953 -39.8658
lclavicle 6.95746e-015 4.57205e-015
lhumerus -35.2033 -62.5275 68.3943
lradius 94.8835
lwrist -4.57023
lhand 2.56664 26.7713
lfingers 7.12502
lthumb 28.0464 54.6951
rfemur -103.197 -9.35108 21.6201
rtibia 88.1845
rfoot -0.0978674 -8.60411
rtoes 6.37745
lfemur -96.1651 0.725965 -17.8702
ltibia 69.3954
lfoot 10.0558 -4.16907
ltoes -15.4794
324
root 7.83862 10.2074 15.5529 10.8724 -0.0208945 2.86745
lowerback 6.1979 -0.493937 -0.516649
upperback -10.6258 -0.989239 -1.82866
thorax -15.2755 -0.553158 -1.56309
lowerneck -14.454 -1.65187 -2.00729
upperneck 38.9288 -1.65683 -0.649582
head 16.4074 -1.10388 -0.229587
rclavicle 6.4605e-015 5.1684e-015
rhumerus -37.268 62.9753 -72.4011
rradius 94.0419
rwrist 15.3319
rhand -2.05963 -11.4991
rfingers 7.12502
rthumb 23.6162 -40.0688
lclavicle 6.4605e-015 5.1684e-015
lhumerus -36.1726 -61.9171 68.3453
lradius 95.4966
lwrist -4.53481
lhand 2.66037 27.0123
lfingers 7.12502
lthumb 28.136 54.9214
rfemur -103.539 -9.20803 21.8819
rtibia 88.8905
rfoot -0.565984 -8.69536
rtoes 6.42486
lfemur -96.4365 0.875282 -17.9592
ltibia 69.6451
lfoot 9.51443 -4.12183
ltoes -14.9577
325
root 7.83642 10.2107 15.55 10.9172 -0.0121499 2.93472
lowerback 6.34238 -0.479994 -0.525123
upperback -10.573 -0.979158 -1.87856
thorax -15.3054 -0.551179 -1.61531
lowerneck -14.4685 -1.60927 -1.92495
upperneck 38.9818 -1.57087 -0.758933
head 16.4359 -1.07084 -0.277693
rclavicle 8.29926e-015 -1.86858e-014
rhumerus -38.4596 62.5222 -72.5924
rradius 94.75
rwrist 15.424
rhand -2.13173 -11.753
rfingers 7.12502
rthumb 23.547 -40.3316
lclavicle 8.29926e-015 -1.86858e-014
lhumerus -37.1243 -61.3174 68.3087
lradius 96.0728
lwrist -4.39586
lhand 2.74049 27.2755
lfingers 7.12502
lthumb 28.2125 55.1719
rfemur -103.718 -9.23813 22.0725
rtibia 89.6055
rfoot -1.06214 -8.78702
rtoes 6.45719
lfemur -96.5386 0.857123 -18.11
ltibia 69.8109
lfoot 8.99692 -4.10156
ltoes -14.3767
326
root 7.83441 10.2149 15.5471 10.9631 0.000886898 2.9951
lowerback 6.49036 -0.465163 -0.516305
upperback -10.519 -0.965856 -1.93108
thorax -15.3364 -0.549895 -1.68085
lowerneck -14.4906 -1.5757 -1.84049
upperneck 39.0378 -1.49666 -0.874953
head 16.4682 -1.04332 -0.33144
rclavicle -2.23633e-015 1.61016e-014
rhumerus -39.6732 62.0748 -72.8242
rradius 95.4249
rwrist 15.4785
rhand -2.2325 -12.026
rfingers 7.12502
rthumb 23.4504 -40.617
lclavicle -2.23633e-015 1.61016e-014
lhumerus -38.0484 -60.7301 68.2739
lradius 96.6121
lwrist -4.15404
lhand 2.81155 27.5589
lfingers 7.12502
lthumb 28.2805 55.4441
rfemur -103.878 -9.27015 22.2601
rtibia 90.3131
rfoot -1.55341 -8.85436
rtoes 6.45574
lfemur -96.6383 0.834464 -18.2603
ltibia 69.9614
lfoot 8.52368 -4.07861
ltoes -13.8586
